<?xml version="1.0" encoding="utf-8"?>
<!-- Generator: Adobe Illustrator 21.0.0, SVG Export Plug-In . SVG Version: 6.00 Build 0)  -->
<svg version="1.1" id="Layer_1" xmlns="http://www.w3.org/2000/svg" xmlns:xlink="http://www.w3.org/1999/xlink" x="0px" y="0px"
	 viewBox="0 0 36 36" style="enable-background:new 0 0 36 36;" xml:space="preserve">
<style type="text/css">
	.st0{fill:#FFFFFF;}
</style>
<g>
	<g>
		<path class="st0" d="M10.9,15.6c-0.3,0-0.6-0.2-0.6-0.5c-0.1-1.3,0.4-2.6,1.3-3.6c1-1,2.3-1.5,3.7-1.3c0.3,0,0.6,0.3,0.5,0.6
			c0,0.3-0.3,0.6-0.6,0.5c-1-0.1-2,0.3-2.8,1c-0.7,0.7-1.1,1.7-1,2.7C11.5,15.3,11.3,15.5,10.9,15.6C11,15.6,10.9,15.6,10.9,15.6z"
			/>
	</g>
	<g>
		<path class="st0" d="M7.7,15.3c-0.3,0-0.6-0.2-0.6-0.6C7,12.6,7.8,10.5,9.3,9c1.5-1.5,3.6-2.3,5.8-2.2c0.3,0,0.6,0.3,0.5,0.6
			C15.6,7.7,15.4,8,15,8c-1.8-0.1-3.6,0.6-4.9,1.9c-1.3,1.3-2,3-1.9,4.8C8.3,15,8,15.3,7.7,15.3C7.7,15.3,7.7,15.3,7.7,15.3z"/>
	</g>
	<g>
		<path class="st0" d="M4.6,15C4.3,15,4,14.8,4,14.5c-0.1-2.9,1-5.6,3-7.7c2.1-2.1,4.9-3.2,7.8-3c0.3,0,0.6,0.3,0.6,0.6
			c0,0.3-0.3,0.6-0.6,0.6c-2.6-0.1-5.1,0.9-6.9,2.7c-1.8,1.8-2.8,4.2-2.7,6.8C5.2,14.8,4.9,15,4.6,15C4.6,15,4.6,15,4.6,15z"/>
	</g>
	<path class="st0" d="M31.8,12.3L27.5,8c-0.1-0.1-0.3-0.2-0.4-0.2c-0.1,0-0.3,0.1-0.4,0.2l-4,4c1.2,0.4,2.3,1.1,3.2,2
		c0.9,0.9,1.6,2,2,3.2l4-4C32.1,12.9,32.1,12.6,31.8,12.3z"/>
	<path class="st0" d="M11.7,22.9l-4,4c-0.2,0.2-0.2,0.6,0,0.8l4.4,4.4c0.1,0.1,0.3,0.2,0.4,0.2c0.1,0,0.3-0.1,0.4-0.2l4-4
		c-1.2-0.4-2.3-1.1-3.2-2C12.8,25.1,12.1,24,11.7,22.9z"/>
	<path class="st0" d="M27,18.8c0-0.2-0.1-0.5-0.1-0.7c-0.3-1.2-1-2.3-1.9-3.3c-0.9-0.9-2.1-1.6-3.3-1.9c-0.2-0.1-0.4-0.1-0.7-0.1
		c-0.2,0-0.5-0.1-0.7-0.1c-0.2,0-0.3,0-0.5,0c-1.9,0-3.8,0.7-5.2,2.2c-1.6,1.6-2.3,3.7-2.1,5.7c0,0.2,0,0.5,0.1,0.7
		c0,0.2,0.1,0.5,0.1,0.7c0.3,1.2,1,2.3,1.9,3.3s2.1,1.6,3.3,1.9c0.2,0.1,0.4,0.1,0.7,0.1c0.2,0,0.5,0.1,0.7,0.1c0.2,0,0.3,0,0.5,0
		c1.9,0,3.8-0.7,5.2-2.2c1.6-1.6,2.3-3.7,2.1-5.7C27.1,19.3,27.1,19,27,18.8z M22.8,23.7c-0.1,0.1-0.2,0.1-0.3,0.1s-0.2,0-0.3-0.1
		l-1.3-1.3c-0.1-0.1-0.2-0.3-0.1-0.5l0.7-1.2l-3,1.4c-0.2,0.1-0.4,0-0.5-0.1c-0.1-0.1-0.2-0.3-0.1-0.5l1.2-2.7l-1,0.4
		c-0.2,0.1-0.3,0-0.5-0.1L16,17.6c-0.2-0.2-0.2-0.4,0-0.6c0.2-0.2,0.4-0.2,0.6,0l1.2,1.2l1.7-0.6c0.2-0.1,0.3,0,0.5,0.1
		c0.1,0.1,0.2,0.3,0.1,0.5l-1.1,2.6l3.1-1.5c0.2-0.1,0.4,0,0.5,0.1c0.1,0.1,0.2,0.3,0.1,0.5L21.6,22l1.1,1.1
		C22.9,23.3,22.9,23.5,22.8,23.7z"/>
</g>
</svg>
