<?xml version="1.0" encoding="utf-8"?>
<!-- Generator: Adobe Illustrator 21.0.0, SVG Export Plug-In . SVG Version: 6.00 Build 0)  -->
<svg version="1.1" id="Layer_1" xmlns="http://www.w3.org/2000/svg" xmlns:xlink="http://www.w3.org/1999/xlink" x="0px" y="0px"
	 viewBox="0 0 36 36" style="enable-background:new 0 0 36 36;" xml:space="preserve">
<style type="text/css">
	.st0{fill:#FFFFFF;}
</style>
<g>
	<g>
		<path class="st0" d="M28.8,9.2h-7.6c-0.5,0-0.9,0.4-0.9,0.9v2.3c1.2,0.5,2.1,1.7,2.1,3.1v0.2H25l2.2,1.5v-1.5h1.6
			c0.5,0,0.9-0.4,0.9-0.9v-4.6C29.7,9.6,29.3,9.2,28.8,9.2z M20.1,14.1c-0.3-0.3-0.7-0.4-1.2-0.4H8c-1,0-1.8,0.8-1.8,1.8v7
			c0,1,0.8,1.8,1.8,1.8h5.3l3.4,2.6v-2.6H19c1,0,1.8-0.8,1.8-1.8v-7c0-0.1,0-0.3-0.1-0.4C20.6,14.7,20.4,14.4,20.1,14.1z"/>
	</g>
</g>
</svg>
