<?xml version="1.0" encoding="utf-8"?>
<!-- Generator: Adobe Illustrator 21.0.0, SVG Export Plug-In . SVG Version: 6.00 Build 0)  -->
<svg version="1.1" id="Layer_1" xmlns="http://www.w3.org/2000/svg" xmlns:xlink="http://www.w3.org/1999/xlink" x="0px" y="0px"
	 viewBox="0 0 24 24" style="enable-background:new 0 0 24 24;" xml:space="preserve">
<style type="text/css">
	.st0{fill:#FFFFFF;}
	.st1{fill:#41579B;}
</style>
<g>
	<path class="st0" d="M16.2,13.5l0.3-2h-1.9v-1.3c0-0.6,0.2-1,1-1l1,0V7.5c-0.2,0-0.8-0.1-1.5-0.1c-1.5,0-2.5,0.9-2.5,2.6v1.4h-1.7
		v2h1.7v5h2v-5H16.2z"/>
	<path class="st1" d="M17.8,5.5H6.2c-0.4,0-0.7,0.3-0.7,0.7v11.6c0,0.4,0.3,0.7,0.7,0.7h1.7h4.6v-5h-1.7v-2h1.7v-1.4
		c0-1.7,1-2.6,2.5-2.6c0.7,0,1.3,0.1,1.5,0.1v1.8l-1,0c-0.8,0-1,0.4-1,1v1.3h1.9l-0.3,2h-1.7v5h3.1h0.3c0.4,0,0.7-0.3,0.7-0.7V6.2
		C18.5,5.8,18.2,5.5,17.8,5.5z"/>
</g>
</svg>
