<?xml version="1.0" encoding="utf-8"?>
<!-- Generator: Adobe Illustrator 21.0.0, SVG Export Plug-In . SVG Version: 6.00 Build 0)  -->
<svg version="1.1" id="Layer_1" xmlns="http://www.w3.org/2000/svg" xmlns:xlink="http://www.w3.org/1999/xlink" x="0px" y="0px"
	 viewBox="0 0 36 36" style="enable-background:new 0 0 36 36;" xml:space="preserve">
<style type="text/css">
	.st0{fill-rule:evenodd;clip-rule:evenodd;fill:#F9423A;}
	.st1{fill:#FFFFFF;}
</style>
<path class="st0" d="M18,2c8.8,0,16,7.2,16,16s-7.2,16-16,16S2,26.8,2,18S9.2,2,18,2z"/>
<g>
	<path class="st1" d="M10.4,10.4c-0.5-0.3-1.1-0.2-1.5,0.3c-0.3,0.5-0.2,1.1,0.3,1.5l6.9,3.3L10.4,10.4z"/>
	<path class="st1" d="M17.9,20c-3.1,0-5.9,1.8-7.7,4c-0.1,0.1-0.1,0.1-0.2,0.2c-0.4,0.5-0.8,1-1,1.6h17.8c-0.5-0.9-1.2-1.9-2.1-2.8
		C22.7,21.1,20.2,20,17.9,20z"/>
	<path class="st1" d="M27,10.7c-0.3-0.5-1-0.6-1.5-0.3l-5.7,5.1l6.9-3.3C27.2,11.8,27.4,11.2,27,10.7z"/>
</g>
</svg>
