<?xml version="1.0" encoding="utf-8"?>
<!-- Generator: Adobe Illustrator 21.0.0, SVG Export Plug-In . SVG Version: 6.00 Build 0)  -->
<svg version="1.1" id="Layer_1" xmlns="http://www.w3.org/2000/svg" xmlns:xlink="http://www.w3.org/1999/xlink" x="0px" y="0px"
	 viewBox="0 0 36 36" style="enable-background:new 0 0 36 36;" xml:space="preserve">
<style type="text/css">
	.st0{fill-rule:evenodd;clip-rule:evenodd;fill:#E9757C;}
	.st1{fill:#FFFFFF;}
</style>
<path class="st0" d="M18,2c8.8,0,16,7.2,16,16s-7.2,16-16,16S2,26.8,2,18S9.2,2,18,2z"/>
<path class="st1" d="M22.1,10.9c-1.8,0-3.3,1-4,2.5c-0.7-1.5-2.3-2.5-4.1-2.5c-2.5,0-4.5,2-4.5,4.5c0,0.6,0.1,1.2,0.4,1.8
	c1.6,4.2,7.6,9.5,7.9,9.7l0.3,0.3l0.3-0.3c0.3-0.3,8.2-7.2,8.3-11.2c0-0.1,0-0.2,0-0.3C26.6,12.9,24.6,10.9,22.1,10.9z"/>
</svg>
