<?xml version="1.0" encoding="utf-8"?>
<!-- Generator: Adobe Illustrator 21.0.0, SVG Export Plug-In . SVG Version: 6.00 Build 0)  -->
<svg version="1.1" id="Layer_1" xmlns="http://www.w3.org/2000/svg" xmlns:xlink="http://www.w3.org/1999/xlink" x="0px" y="0px"
	 viewBox="0 0 24 24" style="enable-background:new 0 0 24 24;" xml:space="preserve">
<style type="text/css">
	.st0{fill:#1DA1F2;}
</style>
<path class="st0" d="M19.8,6.9c-0.3,0.2-1.1,0.5-1.8,0.5c0.5-0.3,1.2-1.2,1.3-1.9c-0.4,0.3-1.5,0.7-2.1,0.7
	c-0.6-0.7-1.4-1.1-2.3-1.1c-1.8,0-3.2,1.6-3.2,3.5c0,0.3,0,0.5,0.1,0.8C9.4,9.3,6.6,8,5,5.8c-1,1.8-0.1,3.8,1,4.6
	c-0.4,0-1.1,0-1.4-0.4c0,1.2,0.5,2.8,2.5,3.4c-0.4,0.2-1.1,0.2-1.3,0.1c0.1,1.1,1.4,2.3,2.9,2.3c-0.5,0.6-2.3,1.8-4.5,1.4
	c1.5,1,3.2,1.6,5,1.6c5.2,0,9.3-4.5,9-10.1V8.6C18.6,8.3,19.3,7.7,19.8,6.9L19.8,6.9z"/>
</svg>
