<?xml version="1.0" encoding="utf-8"?>
<!-- Generator: Adobe Illustrator 21.0.0, SVG Export Plug-In . SVG Version: 6.00 Build 0)  -->
<svg version="1.1" id="Layer_1" xmlns="http://www.w3.org/2000/svg" xmlns:xlink="http://www.w3.org/1999/xlink" x="0px" y="0px"
	 viewBox="0 0 36 36" style="enable-background:new 0 0 36 36;" xml:space="preserve">
<style type="text/css">
	.st0{fill-rule:evenodd;clip-rule:evenodd;fill:#48BEFE;}
	.st1{fill:#FFFFFF;}
</style>
<path class="st0" d="M18,2c8.8,0,16,7.2,16,16s-7.2,16-16,16S2,26.8,2,18S9.2,2,18,2z"/>
<g>
	<path class="st1" d="M25.4,19.3c0.6-0.2,2,0,2.1-1.4c0-1.1-1.5-1.2-2.1-1.4c0.6-0.2,2-0.3,2-1.4c0-0.8-0.7-1.5-1.5-1.5h-4.3
		c0,0,0,0,0,0h-3.3l3.1-0.2c-0.2-0.3-0.6-0.8-0.9-1.1c-0.5-0.7-2.3-1.2-3.3-1.3c-1.1-0.1-3.7,2.4-4.1,2.8c-0.2,0.3-2.1,0.4-4.7,0.4
		l-0.1,0v9.3h2.9l1.2,0c0.3,0,0.8,0.2,1.4,0.5c0.8,0.4,1.7,0.8,2.6,0.8h5.4v0h3c0.8,0,1.5-0.7,1.5-1.5c0-0.9-1.4-1-1.8-1.3h0.2
		c0.8,0,2.5-0.2,2.5-1.5C27.4,19.7,26,19.6,25.4,19.3z"/>
</g>
</svg>
