<?xml version="1.0" encoding="utf-8"?>
<!-- Generator: Adobe Illustrator 21.0.0, SVG Export Plug-In . SVG Version: 6.00 Build 0)  -->
<svg version="1.1" id="Layer_1" xmlns="http://www.w3.org/2000/svg" xmlns:xlink="http://www.w3.org/1999/xlink" x="0px" y="0px"
	 viewBox="0 0 36 36" style="enable-background:new 0 0 36 36;" xml:space="preserve">
<style type="text/css">
	.st0{fill-rule:evenodd;clip-rule:evenodd;fill:#2CDB5A;}
	.st1{fill:#FFFFFF;}
</style>
<path class="st0" d="M18,2c8.8,0,16,7.2,16,16s-7.2,16-16,16S2,26.8,2,18S9.2,2,18,2z"/>
<g id="LVHyiK.tif">
	<g>
		<path class="st1" d="M6.9,12.9c1.4,1.7,1.9,2.1,3.3,3.4c2.4,2.3,2.7,2.5,4.6,5.2c0.8,1.3,1.1,2.6,2.3,3.7c1.3,1.2,1.4,1.3,2.8,0.2
			c2-1.6,3.9-3.2,6.3-4.3c1.5-0.6,2.2-2.2,2.8-3.7c0.4-0.9-0.2-1.3-1-1.4c-0.5,0-1,0.2-1.4,0.5c-2.2,1.4-4.6,1.6-7.1,1.8
			c-0.4,0-0.7-0.2-0.9-0.5c-1.7-2.3-3.6-5.4-4.9-8C10.6,9.4,8.7,11.8,6.9,12.9z"/>
	</g>
</g>
</svg>
